<svg version="1.1" id="Layer_1" xmlns="http://www.w3.org/2000/svg" xmlns:xlink="http://www.w3.org/1999/xlink" x="0px" y="0px"
	 width="100%" viewBox="0 0 416 416" enable-background="new 0 0 416 416" xml:space="preserve">
<path fill="#000000" opacity="1.000000" stroke="none" 
	d="
M220.823502,263.801819 
	C238.394501,247.844849 268.592407,247.878815 287.311462,260.421051 
	C307.945953,274.246643 306.499237,299.333069 284.295807,311.285614 
	C264.825470,321.766907 244.938568,321.240265 226.461761,309.332489 
	C214.975174,301.929688 208.486542,292.155365 211.743469,278.709717 
	C213.148453,272.909454 215.840530,267.862244 220.823502,263.801819 
M271.475372,257.015900 
	C255.186493,252.807861 239.820694,254.245773 225.846924,264.401031 
	C215.991135,271.563599 212.660645,283.556244 217.961334,294.521118 
	C222.967102,304.875977 231.889587,310.177551 242.806931,312.636810 
	C257.688690,315.989136 272.178284,315.284454 284.922699,306.283142 
	C299.804108,295.772461 301.609070,280.179840 290.386749,268.210388 
	C285.467072,262.963165 279.455872,258.973114 271.475372,257.015900 
z"/>
<path fill="#000000" opacity="1.000000" stroke="none" 
	d="
M180.321457,261.906189 
	C169.491089,261.839966 159.882187,259.056549 151.223831,253.225006 
	C138.885605,244.915024 134.458328,231.461395 140.411438,220.539932 
	C144.651047,212.762039 151.087845,207.261368 159.167068,204.062973 
	C174.737289,197.899033 190.561691,196.955826 206.160095,203.975769 
	C216.339294,208.556839 224.301819,215.596771 225.438980,227.429321 
	C226.630814,239.830521 219.654556,247.975189 209.750793,254.249924 
	C200.852875,259.887360 190.926102,261.327881 180.321457,261.906189 
M197.236145,204.235413 
	C180.844650,200.085464 165.523361,202.334702 151.800369,212.451447 
	C138.596481,222.185501 138.683640,239.356277 151.719437,249.309143 
	C167.684433,261.498444 193.868835,261.717377 210.219238,249.798309 
	C225.290878,238.811386 225.208786,221.136368 210.068237,210.255844 
	C206.378464,207.604248 202.343384,205.721710 197.236145,204.235413 
z"/>
<path fill="#000000" opacity="1.000000" stroke="none" 
	d="
M82.326614,159.228882 
	C99.569138,148.286652 117.415184,146.570343 136.012039,154.010254 
	C147.931213,158.778687 154.664932,168.307022 154.266464,179.386047 
	C153.997635,186.860519 150.491058,193.188049 144.816788,197.408707 
	C125.912750,211.469955 105.345619,213.558975 84.221329,203.020309 
	C65.527954,193.694382 63.869705,174.145065 80.101288,161.027847 
	C80.748840,160.504532 81.388405,159.971344 82.326614,159.228882 
M137.615768,158.848984 
	C127.498482,152.319748 116.264633,151.908768 104.925362,153.509933 
	C94.800598,154.939651 85.814384,159.262100 78.875862,167.010651 
	C70.013596,176.907547 71.633835,190.047226 82.473930,197.768402 
	C97.451172,208.436386 121.804420,208.878601 137.238571,198.610306 
	C148.313126,191.242416 153.659210,180.018311 148.029236,168.901703 
	C145.792633,164.485474 142.063034,161.878159 137.615768,158.848984 
z"/>
<path fill="#000000" opacity="1.000000" stroke="none" 
	d="
M359.091034,232.059036 
	C350.999817,238.232681 343.177460,244.168045 335.398163,250.159378 
	C332.502533,252.389496 330.086426,252.395721 326.931152,250.083130 
	C318.219482,243.698212 309.195343,237.739441 300.286469,231.624237 
	C299.461578,231.058014 298.560425,230.594147 298.260529,229.365555 
	C298.797363,226.888138 301.173767,225.975876 302.957245,224.631943 
	C310.005707,219.320618 317.300385,214.326752 324.212555,208.847778 
	C327.806488,205.999039 330.824432,206.404785 334.105621,208.869873 
	C342.222260,214.967743 350.649109,220.614471 359.285370,225.937729 
	C362.688843,228.035568 362.392395,229.827362 359.091034,232.059036 
M332.699951,247.150406 
	C340.417358,241.252991 348.134766,235.355576 356.362183,229.068420 
	C347.446014,222.872559 339.406342,217.299347 331.385620,211.699020 
	C330.026611,210.750107 328.667908,210.379349 327.254395,211.438263 
	C319.580078,217.187286 311.922791,222.959000 303.493561,229.299103 
	C311.862610,235.164688 319.413239,240.490417 327.008911,245.751083 
	C328.494141,246.779739 330.051361,247.866028 332.699951,247.150406 
z"/>
<path fill="#000000" opacity="1.000000" stroke="none" 
	d="
M272.248718,188.302612 
	C267.918976,191.425262 263.875366,194.335434 259.866058,197.292084 
	C256.838257,199.524887 254.198517,199.711197 250.916336,197.204147 
	C243.681366,191.677795 236.096375,186.609909 228.660187,181.346497 
	C227.329666,180.404739 225.748138,179.738235 224.995255,178.180832 
	C224.929825,176.565262 225.993393,175.714798 227.071625,174.946045 
	C235.183060,169.162811 243.358521,163.468063 251.412079,157.605682 
	C254.090622,155.655884 256.272675,155.625916 259.032806,157.579498 
	C266.890839,163.141281 274.868469,168.540833 282.921570,173.817230 
	C286.581085,176.214981 286.441345,177.966141 282.894318,180.317917 
	C279.302795,182.699173 275.986450,185.495544 272.248718,188.302612 
M259.522491,192.856934 
	C266.402954,187.784439 273.283417,182.711945 280.743835,177.211884 
	C272.282532,171.319565 264.538910,165.932037 256.802795,160.533752 
	C255.773575,159.815552 254.743713,159.408493 253.630814,160.312103 
	C246.201447,166.344223 237.620148,170.879959 230.250961,178.072189 
	C237.691864,183.316040 244.926620,188.223877 251.927399,193.445419 
	C254.597946,195.437241 256.659790,195.254303 259.522491,192.856934 
z"/>
<path fill="#000000" opacity="1.000000" stroke="none" 
	d="
M204.461609,120.520264 
	C207.358917,122.510056 209.935928,124.331139 212.551926,126.094376 
	C214.758087,127.581352 215.050720,129.103180 212.745071,130.728851 
	C204.471313,136.562592 196.174561,142.363861 187.917526,148.221130 
	C185.076584,150.236404 182.666641,150.003510 179.827820,147.862564 
	C172.800629,142.562836 165.601227,137.482910 158.339050,132.507309 
	C155.173965,130.338791 154.590546,128.618622 158.072205,126.265320 
	C166.322830,120.688644 174.517426,115.028297 182.693176,109.342133 
	C185.004135,107.734894 186.935028,108.234840 189.049240,109.758156 
	C194.035309,113.350670 199.115860,116.812050 204.461609,120.520264 
M163.898697,126.331337 
	C160.914001,128.141373 160.898453,130.024918 163.740906,132.005981 
	C169.607697,136.094879 175.498489,140.150436 181.314911,144.309906 
	C183.554260,145.911316 185.348358,145.746017 187.595901,144.107513 
	C192.972656,140.187744 198.597153,136.609680 204.042709,132.781403 
	C205.865387,131.500031 207.933807,130.350479 209.133926,127.946068 
	C202.196930,123.161285 195.432602,118.632561 188.831207,113.877655 
	C186.030136,111.860085 183.874298,112.233261 181.236130,114.203651 
	C175.774277,118.282967 170.092712,122.068077 163.898697,126.331337 
z"/>
<path fill="#000000" opacity="1.000000" stroke="none" 
	d="
M282.879761,280.835144 
	C285.100769,281.690002 287.662415,281.247345 288.536316,283.833588 
	C286.998535,285.959351 285.229828,284.996796 283.507355,284.629120 
	C278.127106,283.480804 272.698151,282.834534 267.181305,283.146942 
	C257.076385,283.719147 252.664841,289.410767 254.657715,299.493652 
	C255.128052,301.873230 255.991043,304.175171 256.756256,306.796753 
	C252.378159,307.803650 250.869339,305.042023 249.963470,301.998932 
	C246.180298,289.290070 254.855438,278.407501 268.179871,279.095398 
	C272.976013,279.343018 277.802612,279.476257 282.879761,280.835144 
z"/>
<path fill="#000000" opacity="1.000000" stroke="none" 
	d="
M227.475983,285.722168 
	C225.463959,281.852295 227.379868,280.123962 230.523697,279.314117 
	C233.860489,278.454590 236.965820,279.213593 238.471542,282.510956 
	C239.651489,285.094879 237.520447,286.330139 235.404480,287.190063 
	C232.602753,288.328705 229.954178,288.451447 227.475983,285.722168 
z"/>
<path fill="#000000" opacity="1.000000" stroke="none" 
	d="
M257.318146,270.671936 
	C256.141357,270.908722 255.301422,271.157074 254.512634,271.045105 
	C252.098160,270.702454 249.898438,269.837646 249.640610,267.012817 
	C249.462219,265.058380 250.984558,264.074310 252.601059,263.513245 
	C255.276047,262.584808 257.562225,263.511627 259.158020,265.657776 
	C260.689911,267.717957 259.705139,269.360626 257.318146,270.671936 
z"/>
<path fill="#000000" opacity="1.000000" stroke="none" 
	d="
M180.069061,252.536163 
	C179.298325,250.600632 180.620483,249.830887 181.632996,249.094116 
	C190.519958,242.627396 199.417847,236.174133 208.403854,229.846649 
	C209.776779,228.879883 211.398651,227.578873 213.353256,228.596970 
	C214.350479,230.101624 213.295517,230.870865 212.379089,231.533508 
	C203.073669,238.262131 193.753281,244.970245 184.408218,251.643677 
	C183.218811,252.493057 181.974075,253.517960 180.069061,252.536163 
z"/>
<path fill="#000000" opacity="1.000000" stroke="none" 
	d="
M156.156281,225.974213 
	C157.598373,225.503586 158.744247,224.887726 159.794830,225.021332 
	C162.047882,225.307892 164.574356,225.628387 165.292953,228.364304 
	C165.875427,230.581955 164.250397,231.593277 162.528397,232.424713 
	C159.926865,233.680801 157.299103,233.823135 155.227783,231.679108 
	C153.479446,229.869385 153.668655,227.799179 156.156281,225.974213 
z"/>
<path fill="#000000" opacity="1.000000" stroke="none" 
	d="
M179.954391,211.055786 
	C182.589890,211.605316 185.078766,212.008972 185.689667,214.693497 
	C186.068390,216.357727 184.596069,217.304886 183.302689,218.069839 
	C180.337112,219.823761 176.074066,218.944443 175.238724,216.203079 
	C174.120377,212.533112 176.981720,211.823105 179.954391,211.055786 
z"/>
<path fill="#000000" opacity="1.000000" stroke="none" 
	d="
M131.620605,186.509369 
	C121.855331,196.861710 98.934830,198.493164 95.009232,189.314438 
	C97.160477,187.336990 98.967621,189.085037 100.787521,189.935104 
	C109.121918,193.828033 123.519279,190.589111 128.067093,183.766724 
	C131.946167,177.947556 131.761520,175.818558 126.983147,170.657806 
	C126.441071,170.072357 126.022964,169.372101 125.563721,168.747314 
	C127.094139,166.061996 128.692307,167.344452 130.204453,168.337341 
	C136.292328,172.334717 136.805603,178.075790 131.620605,186.509369 
z"/>
<path fill="#000000" opacity="1.000000" stroke="none" 
	d="
M93.179970,182.378326 
	C92.339127,182.658859 91.870544,182.887222 91.389557,182.917374 
	C88.519165,183.097260 86.004112,182.360062 85.132553,179.321960 
	C84.599716,177.464584 85.959938,176.163788 87.568840,175.504028 
	C90.437393,174.327759 93.331619,174.924973 95.276909,177.090118 
	C97.152245,179.177399 95.680740,181.024887 93.179970,182.378326 
z"/>
<path fill="#000000" opacity="1.000000" stroke="none" 
	d="
M108.639618,161.382523 
	C109.813347,161.109253 110.662025,160.808746 111.433723,160.944809 
	C113.765488,161.355988 116.163445,161.976608 116.506989,164.839447 
	C116.808945,167.355774 114.794250,168.265915 112.885834,168.892090 
	C110.552780,169.657562 108.216583,169.598785 106.643173,167.328049 
	C104.913445,164.831741 106.008324,162.991928 108.639618,161.382523 
z"/>
</svg>